<svg width="100" height="49" viewBox="0 0 100 49" fill="none" xmlns="http://www.w3.org/2000/svg">
<path d="M37.3785 6.36768C42.2119 4.20101 60.6785 -1.63222 69.8785 2.36778C79.0785 6.36778 93.3785 12.3678 99.3785 14.8677C91.7119 12.8677 75.4785 8.96775 71.8785 9.36775C83.3785 13.3677 86.8785 18.3677 86.8785 24.3677C85.5452 33.2011 79.207 51.156 76.3785 44.3677C74.8664 40.7385 75.5494 36.5605 76.8785 33.4934C78.0753 30.7318 80.3652 27.4625 82.8785 31.0517C84.6665 33.605 83.9022 38.1986 67.8785 39.8677C48.6785 41.8677 34.5452 39.3677 29.8785 37.8677C16.8785 35.2011 -6.72146 28.2677 2.87854 21.8677C12.4785 15.4677 46.2119 15.2011 61.8785 15.8677" stroke="#00A8DA"/>
<path d="M80.8785 13.8679C69.0451 11.7013 47.4785 8.96791 51.8785 15.3679C57.3785 23.3679 78.3784 25.8679 81.8785 25.3679C85.3785 24.8679 74.8785 16.8679 60.8785 15.3679" stroke="#00A8DA"/>
<path d="M64.3784 19.8677C63.8784 20.8677 53.3784 31.3677 30.3784 37.8677" stroke="#00A8DA"/>
<path d="M41.8784 5.3677C45.7118 4.8677 52.7784 4.5677 50.3784 7.3677C47.3784 10.8677 31.8784 29.8677 17.3784 32.3677" stroke="#00A8DA"/>
<path d="M91.8784 13.3677C95.2118 14.5343 97.9784 18.2677 82.3784 23.8677C62.8784 30.8677 58.3784 40.8677 55.3784 42.8677C52.3784 44.8677 41.3784 48.8677 26.8784 34.3677C12.3784 19.8677 15.3784 8.86767 26.8784 6.86767C38.3784 4.86767 47.3784 8.36767 55.3784 13.3677C63.3784 18.3677 72.3784 24.3677 68.3784 27.3677C64.3784 30.3677 44.8784 27.3677 35.8784 22.3677C26.8784 17.3677 21.8784 7.36768 41.8784 5.36768" stroke="#00A8DA"/>
<path d="M60.3785 15.8677C70.3785 16.201 91.4785 18.2677 95.8785 23.8677C101.378 30.8677 97.8785 45.3677 76.8785 47.3677C60.0785 48.9677 33.8785 48.0343 22.8785 47.3677C19.5451 47.201 12.8785 45.3677 12.8785 39.3677C12.8785 31.8677 10.3785 9.86768 13.8785 9.86768C17.3785 9.86768 35.8785 17.8677 37.8785 39.3677C38.3785 40.3677 34.3785 42.3677 29.8785 42.3677C25.3785 42.701 16.2785 41.8677 15.8785 35.8677C15.3785 28.3677 35.8785 18.8677 42.8785 15.8677" stroke="#00A8DA"/>
<path d="M64.3784 19.8677C58.5451 19.5344 44.6784 19.6677 35.8784 22.8677" stroke="#00A8DA"/>
<path d="M42.3784 24.8677C43.0451 27.201 43.4784 32.4677 39.8784 34.8677" stroke="#00A8DA"/>
<path d="M6.87842 19.8677C8.37842 21.5343 11.6784 26.5677 12.8784 33.3677" stroke="#00A8DA"/>
<path d="M16.3784 34.8677C17.136 37.2881 20.1966 41.8613 30.3784 37.8677" stroke="#00A8DA"/>
</svg>
