<svg width="510" height="414" viewBox="0 0 510 414" fill="none" xmlns="http://www.w3.org/2000/svg">
<path d="M180.774 245.099C226.813 191.604 236.863 170.854 236.863 143.62C236.863 103.094 205.415 75.2116 159.701 75.2116C112.366 75.2116 83.8351 103.742 83.8351 147.511V151.401H140.896V147.187C140.896 134.218 148.353 126.113 160.349 126.113C171.372 126.113 179.153 133.894 179.153 145.566C179.153 164.046 167.158 180.581 80.2688 283.032V296H240.754V245.099H180.774ZM345.613 154.319H325.512L328.106 129.679H411.428V80.399H283.689L271.693 192.901L277.205 200.033H344.317C359.879 200.033 370.902 210.732 370.902 225.97C370.902 240.884 360.527 251.583 346.262 251.583C331.997 251.583 321.622 241.208 321.622 226.619H266.182C266.182 270.063 299.251 301.187 346.262 301.187C393.273 301.187 426.991 270.063 426.991 226.294C426.991 183.823 393.597 154.319 345.613 154.319Z" fill="#00ABDF"/>
<path d="M187.673 312.741H185.002L166.953 341.041L149.121 312.741H146.45L165.726 343.424V363.277H168.181V343.352L187.673 312.741ZM200.21 361.039V338.009H223.168V335.771H200.21V315.051H225.045V312.741H197.827V363.277H225.839V361.039H200.21ZM273.92 363.277H276.519L254.499 312.741H252.478L231.036 363.277H233.563L239.772 348.694H267.567L273.92 363.277ZM253.489 316.206L266.628 346.456H240.71L253.489 316.206ZM319.741 327.108C319.741 318.805 313.243 312.741 304.363 312.741H286.026V363.277H288.408V341.402H303.93L316.997 363.277H319.669L306.529 341.258C314.254 340.392 319.741 334.688 319.741 327.108ZM288.408 315.051H304.291C311.944 315.051 317.358 320.105 317.358 327.108C317.358 334.039 311.944 339.092 304.291 339.092H288.408V315.051ZM345.501 363.927C355.247 363.927 362.178 358.296 362.178 349.705C362.178 339.958 353.803 338.009 345.789 336.277C338.353 334.616 331.206 333.1 331.206 325.447C331.206 318.805 336.693 314.474 345.068 314.474C353.081 314.474 358.496 319.094 358.496 326.242H360.806C360.806 317.723 354.597 312.164 345.068 312.164C335.249 312.164 328.824 317.434 328.824 325.52C328.824 334.905 337.271 336.782 345.068 338.442C352.648 340.175 359.723 341.691 359.723 349.705C359.723 356.78 353.875 361.545 345.501 361.545C336.26 361.545 330.123 356.419 330.123 348.477H327.741C327.741 357.791 334.816 363.927 345.501 363.927Z" fill="#00ABDF"/>
<path d="M30.1494 163.433V172.752H43.4397C41.7593 176.877 36.9473 179.626 31.2951 179.626C23.1987 179.626 17.9284 173.821 17.9284 165.343C17.9284 156.788 23.2751 150.983 31.2951 150.983C36.7182 150.983 41.5302 153.886 43.4397 158.392H58.9451C56.6537 146.018 45.1965 137.235 31.1423 137.235C14.7204 137.235 2.80488 149.074 2.80488 165.343C2.80488 181.612 14.9495 193.375 31.2951 193.375C48.0226 193.375 59.4798 180.925 59.4798 163.433H30.1494ZM113.996 192H130.418L119.801 172.599C125.071 169.468 128.279 164.044 128.279 157.476C128.279 146.324 119.877 138.533 108.42 138.533H85.2V192H99.9416V175.654H105.288L113.996 192ZM99.9416 151.671H106.663C110.788 151.671 113.156 154.115 113.156 157.476C113.156 160.76 110.788 163.281 106.663 163.281H99.9416V151.671ZM181.358 193.375C198.544 193.375 210.765 181.689 210.765 165.343C210.765 148.921 198.544 137.235 181.358 137.235C164.172 137.235 151.951 148.997 151.951 165.343C151.951 181.612 164.172 193.375 181.358 193.375ZM181.358 179.703C173.262 179.703 167.227 173.592 167.227 165.343C167.227 157.017 173.262 150.907 181.358 150.907C189.531 150.907 195.412 156.941 195.412 165.343C195.412 173.668 189.531 179.703 181.358 179.703ZM293.758 138.533L285.28 169.391L272.295 138.839H267.254L254.498 169.391L245.791 138.533H229.98L246.708 192H259.692L269.775 166.26L280.01 192H292.995L309.493 138.533H293.758ZM333.385 192H348.356V138.533H333.385V192ZM410.458 138.533V166.641L389.912 138.533H377.003V192H391.287V163.052L412.521 192H424.742V138.533H410.458ZM477.961 163.433V172.752H491.252C489.571 176.877 484.759 179.626 479.107 179.626C471.011 179.626 465.74 173.821 465.74 165.343C465.74 156.788 471.087 150.983 479.107 150.983C484.53 150.983 489.342 153.886 491.252 158.392H506.757C504.466 146.018 493.009 137.235 478.954 137.235C462.532 137.235 450.617 149.074 450.617 165.343C450.617 181.612 462.762 193.375 479.107 193.375C495.835 193.375 507.292 180.925 507.292 163.433H477.961ZM127.23 211.533H110.961L101.184 230.858L91.4074 211.533H75.0619L93.6225 244.072V265H108.593V244.148L127.23 211.533ZM173.489 266.375C190.674 266.375 202.895 254.689 202.895 238.343C202.895 221.921 190.674 210.235 173.489 210.235C156.303 210.235 144.082 221.997 144.082 238.343C144.082 254.612 156.303 266.375 173.489 266.375ZM173.489 252.703C165.392 252.703 159.358 246.592 159.358 238.343C159.358 230.017 165.392 223.907 173.489 223.907C181.661 223.907 187.543 229.941 187.543 238.343C187.543 246.668 181.661 252.703 173.489 252.703ZM251.476 266.375C265.149 266.375 274.849 257.515 274.849 244.377V211.533H259.802V244.072C259.802 249.342 256.441 252.703 251.476 252.703C246.588 252.703 243.227 249.342 243.227 244.072V211.533H228.18V244.377C228.18 257.515 237.88 266.375 251.476 266.375ZM336.444 211.533V239.641L315.898 211.533H302.989V265H317.273V236.052L338.507 265H350.728V211.533H336.444ZM403.948 236.433V245.752H417.238C415.558 249.877 410.746 252.626 405.093 252.626C396.997 252.626 391.727 246.821 391.727 238.343C391.727 229.788 397.073 223.983 405.093 223.983C410.516 223.983 415.328 226.886 417.238 231.392H432.743C430.452 219.018 418.995 210.235 404.941 210.235C388.519 210.235 376.603 222.074 376.603 238.343C376.603 254.612 388.748 266.375 405.093 266.375C421.821 266.375 433.278 253.925 433.278 236.433H403.948Z" fill="white"/>
</svg>
