<svg width="10" height="10" viewBox="0 0 10 10" fill="none" xmlns="http://www.w3.org/2000/svg">
<path d="M4.99985 0.106979C2.29783 0.106979 0.106934 2.29787 0.106934 4.9999C0.106934 7.70192 2.29783 9.89282 4.99985 9.89282C7.70188 9.89282 9.89277 7.70192 9.89277 4.9999C9.89277 2.29787 7.70188 0.106979 4.99985 0.106979ZM4.99985 9.06277C2.75654 9.06277 0.936982 7.24321 0.936982 4.9999C0.936982 2.75658 2.75654 0.937028 4.99985 0.937028C7.24317 0.937028 9.06272 2.75658 9.06272 4.9999C9.06272 7.24321 7.24317 9.06277 4.99985 9.06277ZM5.06101 3.24478C5.63986 3.24478 6.03304 3.61393 6.07673 4.15565C6.08001 4.20152 6.11823 4.23647 6.1641 4.23647H6.78336C6.81176 4.23647 6.8347 4.21354 6.8347 4.18514C6.8347 3.23823 6.08765 2.57528 5.05774 2.57528C3.85744 2.57528 3.16501 3.38567 3.16501 4.72467V5.29588C3.16501 6.62505 3.85744 7.42451 5.05774 7.42451C6.08438 7.42451 6.8347 6.78232 6.8347 5.88019C6.8347 5.85179 6.81176 5.82885 6.78336 5.82885H6.16301C6.11714 5.82885 6.08001 5.8638 6.07564 5.90858C6.02977 6.41207 5.63768 6.75829 5.05992 6.75829C4.34673 6.75829 3.94482 6.23514 3.94482 5.29915V4.72467C3.94591 3.77448 4.34892 3.24478 5.06101 3.24478Z" fill="white"/>
</svg>
