<svg width="24" height="24" viewBox="0 0 24 24" fill="none" xmlns="http://www.w3.org/2000/svg">
<path d="M20.8961 22C21.5056 22 21.9999 21.5058 21.9999 20.8962V3.10382C21.9999 2.49414 21.5056 2 20.8961 2H3.10382C2.49406 2 2 2.49414 2 3.10382V20.8962C2 21.5058 2.49406 22 3.10382 22H20.8961Z" fill="#395185"/>
<path d="M15.7995 21.9999V14.2548H18.3993L18.7885 11.2365H15.7995V9.30929C15.7995 8.43539 16.0422 7.83985 17.2954 7.83985L18.8938 7.83914V5.13954C18.6172 5.10275 17.6685 5.02056 16.5647 5.02056C14.2602 5.02056 12.6826 6.4272 12.6826 9.01047V11.2365H10.0762V14.2548H12.6826V21.9999H15.7995Z" fill="white"/>
</svg>
