<svg width="48" height="49" viewBox="0 0 48 49" fill="none" xmlns="http://www.w3.org/2000/svg">
<path fill-rule="evenodd" clip-rule="evenodd" d="M14.929 2.67595C17.275 2.56795 18.023 2.54395 23.999 2.54395C29.975 2.54395 30.723 2.56995 33.067 2.67595C35.411 2.78195 37.011 3.15595 38.411 3.69795C39.877 4.25195 41.207 5.11794 42.307 6.23794C43.427 7.33594 44.291 8.66395 44.843 10.1319C45.387 11.5319 45.759 13.1319 45.867 15.4719C45.975 17.8219 45.999 18.5699 45.999 24.5439C45.999 30.5199 45.973 31.2679 45.867 33.6139C45.761 35.9539 45.387 37.5539 44.843 38.9539C44.291 40.4221 43.4256 41.7523 42.307 42.8519C41.207 43.9719 39.877 44.8359 38.411 45.3879C37.011 45.9319 35.411 46.3039 33.071 46.4119C30.723 46.5199 29.975 46.5439 23.999 46.5439C18.023 46.5439 17.275 46.5179 14.929 46.4119C12.589 46.3059 10.989 45.9319 9.58902 45.3879C8.12086 44.8359 6.79066 43.9705 5.69102 42.8519C4.57178 41.7533 3.70565 40.4237 3.15302 38.9559C2.61102 37.5559 2.23902 35.9559 2.13102 33.6159C2.02302 31.2659 1.99902 30.5179 1.99902 24.5439C1.99902 18.5679 2.02502 17.8199 2.13102 15.4759C2.23702 13.1319 2.61102 11.5319 3.15302 10.1319C3.70647 8.66411 4.57326 7.33457 5.69302 6.23595C6.7911 5.11695 8.11997 4.25083 9.58702 3.69795C10.987 3.15595 12.587 2.78395 14.927 2.67595H14.929ZM32.889 6.63595C30.569 6.52995 29.873 6.50795 23.999 6.50795C18.125 6.50795 17.429 6.52995 15.109 6.63595C12.963 6.73395 11.799 7.09194 11.023 7.39394C9.99702 7.79394 9.26302 8.26795 8.49302 9.03795C7.76311 9.74805 7.20138 10.6125 6.84902 11.5679C6.54702 12.3439 6.18902 13.5079 6.09102 15.6539C5.98502 17.9739 5.96302 18.6699 5.96302 24.5439C5.96302 30.4179 5.98502 31.1139 6.09102 33.4339C6.18902 35.5799 6.54702 36.7439 6.84902 37.5199C7.20102 38.4739 7.76302 39.3399 8.49302 40.0499C9.20302 40.7799 10.069 41.3419 11.023 41.6939C11.799 41.9959 12.963 42.3539 15.109 42.4519C17.429 42.5579 18.123 42.5799 23.999 42.5799C29.875 42.5799 30.569 42.5579 32.889 42.4519C35.035 42.3539 36.199 41.9959 36.975 41.6939C38.001 41.2939 38.735 40.8199 39.505 40.0499C40.235 39.3399 40.797 38.4739 41.149 37.5199C41.451 36.7439 41.809 35.5799 41.907 33.4339C42.013 31.1139 42.035 30.4179 42.035 24.5439C42.035 18.6699 42.013 17.9739 41.907 15.6539C41.809 13.5079 41.451 12.3439 41.149 11.5679C40.749 10.5419 40.275 9.80795 39.505 9.03795C38.7949 8.30809 37.9304 7.74637 36.975 7.39394C36.199 7.09194 35.035 6.73395 32.889 6.63595V6.63595ZM21.189 31.3259C22.7583 31.9792 24.5058 32.0674 26.1329 31.5754C27.76 31.0834 29.1658 30.0418 30.1102 28.6284C31.0547 27.2151 31.4791 25.5177 31.3111 23.8262C31.1431 22.1346 30.393 20.5539 29.189 19.3539C28.4215 18.5869 27.4934 17.9996 26.4717 17.6342C25.4499 17.2689 24.3599 17.1347 23.28 17.2412C22.2001 17.3477 21.1573 17.6923 20.2266 18.2502C19.2959 18.8081 18.5005 19.5654 17.8976 20.4676C17.2947 21.3699 16.8994 22.3945 16.7401 23.4679C16.5807 24.5412 16.6613 25.6365 16.9761 26.675C17.2909 27.7134 17.832 28.6692 18.5605 29.4734C19.2889 30.2776 20.1867 30.9103 21.189 31.3259ZM16.003 16.5479C17.0531 15.4979 18.2997 14.665 19.6716 14.0967C21.0436 13.5284 22.514 13.2359 23.999 13.2359C25.484 13.2359 26.9545 13.5284 28.3264 14.0967C29.6984 14.6649 30.945 15.4979 31.995 16.5479C33.0451 17.598 33.878 18.8446 34.4463 20.2165C35.0146 21.5885 35.3071 23.0589 35.3071 24.5439C35.3071 26.0289 35.0146 27.4994 34.4463 28.8713C33.878 30.2433 33.0451 31.4899 31.995 32.5399C29.8744 34.6606 26.9981 35.852 23.999 35.852C20.9999 35.852 18.1237 34.6606 16.003 32.5399C13.8824 30.4193 12.691 27.543 12.691 24.5439C12.691 21.5449 13.8824 18.6686 16.003 16.5479V16.5479ZM37.815 14.9199C38.0752 14.6745 38.2835 14.3793 38.4276 14.0519C38.5717 13.7245 38.6486 13.3715 38.6539 13.0138C38.6591 12.6561 38.5925 12.301 38.458 11.9696C38.3235 11.6381 38.1239 11.337 37.8709 11.084C37.618 10.8311 37.3169 10.6315 36.9854 10.497C36.6539 10.3625 36.2988 10.2959 35.9412 10.3011C35.5835 10.3063 35.2305 10.3833 34.9031 10.5273C34.5757 10.6714 34.2805 10.8797 34.035 11.1399C33.5576 11.646 33.2963 12.3182 33.3064 13.0138C33.3166 13.7094 33.5974 14.3737 34.0893 14.8656C34.5813 15.3576 35.2455 15.6384 35.9412 15.6485C36.6368 15.6587 37.309 15.3973 37.815 14.9199V14.9199Z" fill="white"/>
</svg>
