<svg width="24" height="24" viewBox="0 0 24 24" fill="none" xmlns="http://www.w3.org/2000/svg">
<path d="M3.30629 3.38854C1.73945 5.01603 2.06013 6.74487 2.06013 11.997C2.06013 16.3586 1.29914 20.731 5.28187 21.7603C6.52554 22.0802 17.5449 22.0802 18.787 21.7587C20.4452 21.3308 21.7944 19.9858 21.9788 17.6405C22.0045 17.3132 22.0045 6.68672 21.978 6.35275C21.7819 3.8546 20.2441 2.41487 18.2179 2.12327C17.7535 2.05597 17.6604 2.03604 15.2778 2.03188C6.82628 2.03604 4.97366 1.65969 3.30629 3.38854Z" fill="url(#paint0_linear_333_1286)"/>
<path d="M12.0274 4.63943C9.01088 4.63943 6.14636 4.37109 5.05223 7.17911C4.60029 8.33887 4.66592 9.84506 4.66592 12.0018C4.66592 13.8943 4.60528 15.6729 5.05223 16.8236C6.14387 19.6333 9.03165 19.3641 12.0258 19.3641C14.9144 19.3641 17.8927 19.6648 19.0001 16.8236C19.4529 15.6522 19.3864 14.1684 19.3864 12.0018C19.3864 9.12561 19.5451 7.26883 18.1502 5.87479C16.7379 4.46247 14.828 4.63943 12.0241 4.63943H12.0274ZM11.3678 5.96618C17.6601 5.95621 18.461 5.2567 18.019 14.9743C17.862 18.4112 15.245 18.034 12.0283 18.034C6.16298 18.034 5.99433 17.8662 5.99433 11.9984C5.99433 6.06255 6.45957 5.9695 11.3678 5.96452V5.96618ZM15.957 7.18825C15.4693 7.18825 15.0739 7.58369 15.0739 8.07136C15.0739 8.55902 15.4693 8.95447 15.957 8.95447C16.4447 8.95447 16.8401 8.55902 16.8401 8.07136C16.8401 7.58369 16.4447 7.18825 15.957 7.18825ZM12.0274 8.2209C9.93969 8.2209 8.2474 9.91402 8.2474 12.0018C8.2474 14.0895 9.93969 15.7818 12.0274 15.7818C14.1152 15.7818 15.8066 14.0895 15.8066 12.0018C15.8066 9.91402 14.1152 8.2209 12.0274 8.2209ZM12.0274 9.54765C15.2716 9.54765 15.2758 14.4559 12.0274 14.4559C8.78408 14.4559 8.77909 9.54765 12.0274 9.54765Z" fill="white"/>
<defs>
<linearGradient id="paint0_linear_333_1286" x1="3.34452" y1="20.697" x2="21.8754" y2="4.65879" gradientUnits="userSpaceOnUse">
<stop stop-color="#FFDD55"/>
<stop offset="0.5" stop-color="#FF543E"/>
<stop offset="1" stop-color="#C837AB"/>
</linearGradient>
</defs>
</svg>
