<svg width="49" height="49" viewBox="0 0 49 49" fill="none" xmlns="http://www.w3.org/2000/svg">
<path d="M44.8374 27.9817V42.7397H36.2814V28.9697C36.2814 25.5097 35.0434 23.1497 31.9474 23.1497C29.5834 23.1497 28.1754 24.7417 27.5574 26.2797C27.3314 26.8297 27.2734 27.5957 27.2734 28.3657V42.7397H18.7134C18.7134 42.7397 18.8294 19.4197 18.7134 17.0017H27.2734V20.6497L27.2174 20.7337H27.2734V20.6497C28.4094 18.8997 30.4394 16.3977 34.9854 16.3977C40.6154 16.3977 44.8374 20.0777 44.8374 27.9817V27.9817ZM9.76143 4.5957C6.83543 4.5957 4.91943 6.5157 4.91943 9.0417C4.91943 11.5117 6.77943 13.4897 9.64943 13.4897H9.70543C12.6914 13.4897 14.5454 11.5117 14.5454 9.0417C14.4934 6.5157 12.6934 4.5957 9.76343 4.5957H9.76143ZM5.42743 42.7397H13.9834V17.0017H5.42743V42.7397Z" fill="white"/>
</svg>
