<svg width="24" height="24" viewBox="0 0 24 24" fill="none" xmlns="http://www.w3.org/2000/svg">
<rect x="2.36035" y="2.96973" width="18.6846" height="18" rx="1" fill="#007AB9"/>
<path d="M19.1698 12.9656V17.9129H16.3014V13.2971C16.3014 12.1382 15.8873 11.3467 14.8488 11.3467C14.0562 11.3467 13.5854 11.8796 13.3775 12.3955C13.302 12.5799 13.2825 12.836 13.2825 13.0946V17.9127H10.4139C10.4139 17.9127 10.4525 10.0951 10.4139 9.28588H13.2827V10.5084C13.2769 10.518 13.2688 10.5274 13.2637 10.5366H13.2827V10.5084C13.6639 9.92184 14.3437 9.08331 15.8678 9.08331C17.755 9.08331 19.1698 10.3163 19.1698 12.9656ZM7.4132 5.12744C6.43199 5.12744 5.79004 5.77153 5.79004 6.61776C5.79004 7.44603 6.41338 8.10872 7.37555 8.10872H7.39416C8.39462 8.10872 9.01668 7.44603 9.01668 6.61776C8.99764 5.77153 8.39462 5.12744 7.4132 5.12744ZM5.96053 17.9129H8.82801V9.28588H5.96053V17.9129Z" fill="white"/>
</svg>
