<svg width="16" height="17" viewBox="0 0 16 17" fill="none" xmlns="http://www.w3.org/2000/svg">
<path d="M7.99999 15.1926C7.0978 14.4147 6.26156 13.5618 5.49999 12.643C4.35714 11.2631 3 9.20802 3 7.24973C2.9995 6.24962 3.29251 5.27184 3.84192 4.44013C4.39134 3.60842 5.17247 2.96018 6.08647 2.57743C7.00047 2.19468 8.00624 2.09464 8.9765 2.28996C9.94676 2.48529 10.8379 2.9672 11.5371 3.67471C12.0027 4.14323 12.3717 4.70045 12.6228 5.3141C12.8739 5.92775 13.0021 6.58565 13 7.24973C13 9.20802 11.6428 11.2631 10.5 12.643C9.73841 13.5618 8.90217 14.4147 7.99999 15.1926ZM7.99999 5.08349C7.43167 5.08349 6.88663 5.31172 6.48476 5.71797C6.0829 6.12422 5.85714 6.67521 5.85714 7.24973C5.85714 7.82425 6.0829 8.37525 6.48476 8.7815C6.88663 9.18775 7.43167 9.41598 7.99999 9.41598C8.56831 9.41598 9.11335 9.18775 9.51521 8.7815C9.91708 8.37525 10.1428 7.82425 10.1428 7.24973C10.1428 6.67521 9.91708 6.12422 9.51521 5.71797C9.11335 5.31172 8.56831 5.08349 7.99999 5.08349Z" fill="white"/>
</svg>
