<svg width="184" height="46" viewBox="0 0 184 46" fill="none" xmlns="http://www.w3.org/2000/svg">
<path d="M11.2063 34.7859C10.6252 34.14 9.75366 33.7847 8.81752 33.7847H6.97751L6.46102 34.8182H8.81752C10.1088 34.8182 11.2063 35.8841 11.2063 37.1761V39.5985H6.52558C5.97681 39.5985 5.55716 39.1786 5.55716 38.6941C5.55716 38.1451 5.94453 37.7575 6.52558 37.7575H9.17261L9.65682 36.6916H6.52558C5.42803 36.6916 4.52417 37.596 4.52417 38.6941C4.52417 39.7277 5.42803 40.6321 6.52558 40.6321H12.2393V39.5985V37.1761C12.2393 36.2717 11.8842 35.3996 11.2063 34.7859Z" fill="white"/>
<path d="M30.2521 33.7847L28.6058 36.8854L27.4759 39.0494C27.4759 39.0817 27.4437 39.114 27.4437 39.114C27.2823 39.3724 26.9917 39.5662 26.6366 39.5662C26.3138 39.5662 25.9587 39.3724 25.8296 39.114C25.8296 39.114 25.8296 39.114 25.8296 39.0817L23.0535 33.7847H21.8914L24.8935 39.5339L24.9258 39.5985C25.2486 40.2122 25.8619 40.6321 26.6044 40.6321L26.6366 40.6644L26.6689 40.6321C27.3791 40.6321 28.0247 40.2445 28.3475 39.6308L28.4121 39.5016L31.4142 33.817H30.2521V33.7847Z" fill="white"/>
<path d="M44.1327 33.7847C43.1966 33.7847 42.3573 34.14 41.7439 34.7859V33.7847H40.7109V40.6321H41.7439V37.1761C41.7439 35.9164 42.8092 34.8182 44.1327 34.8182H44.7138L45.2302 33.7847H44.1327Z" fill="white"/>
<path d="M39.1291 36.692C38.9032 35.0448 37.4505 33.8174 35.7396 33.8174H34.5775C32.7052 33.8174 31.1558 35.3354 31.1558 37.2088C31.1558 39.1467 32.673 40.6648 34.5775 40.6648H37.386L37.9025 39.6312H34.5775C33.254 39.6312 32.1887 38.5331 32.1887 37.2088C32.1887 35.9491 33.2863 34.851 34.5775 34.851H35.7396C36.8695 34.851 37.8379 35.6261 38.0639 36.7243H34.2547L33.7382 37.7902H38.0639H39.1291C39.1291 37.6287 39.1614 37.4672 39.1614 37.2411C39.1614 37.015 39.1291 36.8535 39.1291 36.692Z" fill="white"/>
<path d="M52.6873 34.8182L53.1715 33.7847H46.2311L45.7146 34.8182H48.2002V37.1761C48.2002 38.1451 48.5876 39.0494 49.2332 39.6308C49.8465 40.2445 50.6859 40.6321 51.622 40.6321H52.2031L52.7195 39.5985H51.622C50.2985 39.5985 49.2332 38.5003 49.2332 37.1761V34.8182H52.6873Z" fill="white"/>
<path d="M55.3342 33.7847H54.3013V40.6321H55.3342V33.7847Z" fill="white"/>
<path d="M62.0164 36.6921H58.8852C58.3687 36.6921 57.9491 36.2722 57.9491 35.7231C57.9491 35.2386 58.3687 34.8187 58.8852 34.8187H62.2424L62.7589 33.7852H58.8852C57.8199 33.7852 56.9161 34.6895 56.9161 35.7231C56.9161 36.8213 57.8199 37.7257 58.8852 37.7257H62.0164C62.5652 37.7257 62.9526 38.1132 62.9526 38.6623C62.9526 39.1468 62.5329 39.5667 62.0164 39.5667H57.4003L56.8838 40.6003H62.0164C63.114 40.6003 64.0179 39.6959 64.0179 38.6623C64.0179 37.5642 63.114 36.6921 62.0164 36.6921Z" fill="white"/>
<path d="M66.5034 33.7847H65.4705V40.6321H66.5034V33.7847Z" fill="white"/>
<path d="M74.7028 34.7859C74.0894 34.14 73.2501 33.7847 72.314 33.7847H71.507C70.5708 33.7847 69.7315 34.14 69.1182 34.7859V33.7847H68.0852V40.6321H69.1182V37.1761C69.1182 35.9164 70.1835 34.8182 71.507 34.8182H72.314C73.6375 34.8182 74.7028 35.8841 74.7028 37.1761V40.6321H75.7358V37.1761C75.7358 36.2717 75.3484 35.3996 74.7028 34.7859Z" fill="white"/>
<path d="M80.4163 36.6921L79.8998 37.758H84.29V38.6946C84.29 39.1791 83.8703 39.599 83.3539 39.599H80.4809C79.1573 39.599 78.0921 38.5008 78.0921 37.1766C78.0921 35.9169 79.1573 34.8187 80.4809 34.8187H82.9342L83.4184 33.7852H80.4809C78.6086 33.7852 77.0591 35.3032 77.0591 37.1766C77.0591 39.1145 78.6086 40.6326 80.4809 40.6326H83.3539C83.7089 40.6326 83.9995 40.5357 84.29 40.4065C84.9033 40.0835 85.323 39.4052 85.323 38.6946V37.758V36.6921H80.4163Z" fill="white"/>
<path d="M158.181 34.8182L158.697 33.7847H151.757L151.24 34.8182H153.726V37.1761C153.726 38.1451 154.113 39.0494 154.759 39.6308C155.372 40.2445 156.212 40.6321 157.148 40.6321H157.729L158.213 39.5985H157.116C155.792 39.5985 154.727 38.5003 154.727 37.1761V34.8182H158.181Z" fill="white"/>
<path d="M160.828 33.7847H159.795V40.6321H160.828V33.7847Z" fill="white"/>
<path d="M169.027 34.7859C168.414 34.14 167.575 33.7847 166.638 33.7847H165.831C164.895 33.7847 164.056 34.14 163.41 34.7859V33.7847H162.41V40.6321H163.41V37.1761C163.41 35.9164 164.508 34.8182 165.831 34.8182H166.638C167.962 34.8182 169.027 35.8841 169.027 37.1761V40.6321H170.06V37.1761C170.06 36.2717 169.673 35.3996 169.027 34.7859Z" fill="white"/>
<path d="M174.773 36.6916L174.257 37.7575H178.647V38.6941C178.647 39.1786 178.227 39.5985 177.711 39.5985H174.838C173.514 39.5985 172.449 38.5003 172.449 37.1761C172.449 35.9164 173.514 34.8182 174.838 34.8182H177.291L177.775 33.7847H174.838C172.965 33.7847 171.416 35.3027 171.416 37.1761C171.416 39.114 172.933 40.6321 174.838 40.6321H177.711C178.066 40.6321 178.389 40.5352 178.647 40.406C179.26 40.083 179.68 39.4047 179.68 38.6941V37.7575V36.6916H174.773Z" fill="white"/>
<path d="M99.8172 36.6919H96.6214H95.3624L94.8459 37.7578H96.2017H96.5891C97.1056 37.7578 97.5253 38.1454 97.5253 38.6944C97.5253 39.1789 97.1056 39.5988 96.5891 39.5988H96.1372V40.6324H96.5891C97.6544 40.6324 98.526 39.728 98.526 38.6944C98.526 38.3069 98.4291 38.0162 98.3 37.7578H99.2684L99.8172 36.6919Z" fill="white"/>
<path d="M95.0395 39.5667L92.0374 36.6598L91.8114 36.466L91.6823 36.3368C91.5532 36.2076 91.4563 35.9815 91.4563 35.7231C91.4563 35.2386 91.876 34.8187 92.3925 34.8187H94.4907L95.0072 33.7852H92.4248C91.5532 33.7852 90.7784 34.3665 90.5202 35.2063C90.4556 35.3678 90.4233 35.5293 90.4233 35.7231C90.4233 36.1107 90.5202 36.4337 90.6816 36.6921H90.6493C89.5518 36.6921 88.6802 37.5965 88.6802 38.6946C88.6802 39.7282 89.584 40.6326 90.6493 40.6326H94.6198H96.1048H96.2016L97.0086 39.599H95.0395V39.5667ZM90.6493 39.5667C90.1328 39.5667 89.6809 39.1468 89.6809 38.6623C89.6809 38.1132 90.1328 37.7257 90.6493 37.7257H91.6177L93.5546 39.5667H90.6493Z" fill="white"/>
<path d="M115.861 34.7864C115.247 34.1404 114.408 33.7852 113.44 33.7852H113.181H112.988H112.697C111.761 33.7852 110.922 34.1404 110.308 34.7864C110.115 34.9802 109.953 35.174 109.792 35.4001C109.63 35.174 109.469 34.9802 109.275 34.7864C108.662 34.1404 107.79 33.7852 106.887 33.7852H106.628H106.435H106.176C105.24 33.7852 104.401 34.1404 103.788 34.7864V33.7852H102.755V37.1766V40.6326H103.788V39.6313V37.1766C103.788 35.9169 104.853 34.8187 106.176 34.8187H106.435H106.628H106.887C108.21 34.8187 109.275 35.8846 109.275 37.1766V40.6326H110.276V37.1766C110.276 35.8846 111.374 34.8187 112.665 34.8187H112.955H113.149H113.407C114.731 34.8187 115.828 35.8846 115.828 37.1766V39.6313V40.6326H116.829V37.1766C116.861 36.2722 116.474 35.4001 115.861 34.7864Z" fill="white"/>
<path d="M125.158 34.7859C124.544 34.14 123.673 33.7847 122.769 33.7847H120.897L120.38 34.8182H122.769C124.092 34.8182 125.158 35.8841 125.158 37.1761V39.5985H120.445C119.928 39.5985 119.509 39.1786 119.509 38.6941C119.509 38.1451 119.961 37.7575 120.445 37.7575H123.092L123.608 36.6916H120.445C119.379 36.6916 118.476 37.596 118.476 38.6941C118.476 39.7277 119.347 40.6321 120.445 40.6321H126.191V39.5985V37.1761C126.158 36.2717 125.771 35.3996 125.158 34.7859Z" fill="white"/>
<path d="M131.162 33.7847C130.226 33.7847 129.386 34.14 128.773 34.7859V33.7847H127.772V40.6321H128.773V37.1761C128.773 35.9164 129.838 34.8182 131.162 34.8182H131.711L132.227 33.7847H131.162Z" fill="white"/>
<path d="M134.293 33.7847H133.26V40.6321H134.293V33.7847Z" fill="white"/>
<path d="M140.523 36.9182C140.265 36.789 139.942 36.6921 139.587 36.6921H136.779L138.748 34.8187L139.813 33.7852H138.361L137.263 34.8187L135.326 36.6921H134.81L134.293 37.758H134.874H135.714H139.587C140.104 37.758 140.523 38.1455 140.523 38.6946V40.4065V40.6326H141.556V38.6946C141.589 37.9195 141.169 37.2735 140.523 36.9182Z" fill="white"/>
<path d="M150.853 36.692C150.595 35.0448 149.175 33.8174 147.464 33.8174H146.302C144.397 33.8174 142.88 35.3354 142.88 37.2088C142.88 39.1467 144.397 40.6648 146.302 40.6648H149.11L149.627 39.6312H146.302C144.978 39.6312 143.913 38.5331 143.913 37.2088C143.913 35.9491 144.978 34.851 146.302 34.851H147.464C148.626 34.851 149.594 35.6261 149.82 36.7243H146.011L145.495 37.7902H149.82H150.853C150.853 37.6287 150.886 37.4672 150.886 37.2411C150.918 37.015 150.886 36.8535 150.853 36.692Z" fill="white"/>
<path d="M18.7277 33.7847H16.9522L16.468 34.8182H18.76C20.0835 34.8182 21.181 35.8841 21.181 37.1761C21.181 38.5003 20.0835 39.5985 18.76 39.5985H14.8863V33.7847H13.8533V40.6321H18.7277C20.6322 40.6321 22.1817 39.114 22.1817 37.1761C22.1494 35.3027 20.6322 33.7847 18.7277 33.7847Z" fill="white"/>
<path d="M87.8411 27.0343L98.3323 6.10442C98.3323 6.10442 98.7843 5.29694 99.4299 5.23235C99.8818 5.20005 100.398 5.26464 100.915 6.10442C102.174 8.23617 111.438 27.0343 111.438 27.0343H106.306L101.044 15.665C101.044 15.665 100.495 14.4053 99.6236 14.4053C99.2039 14.4053 98.752 14.5668 98.3323 15.3743C97.1702 17.8613 93.006 27.0343 93.006 27.0343H87.8411Z" fill="white"/>
<path d="M4.36279 27.6802L14.8863 6.78265C14.8863 6.78265 15.3383 5.97517 15.9839 5.91057C16.4358 5.87827 16.9523 5.94287 17.4365 6.78265C18.6955 8.91439 27.9601 27.6802 27.9601 27.6802H22.8274L17.5656 16.3109C17.5656 16.3109 17.0169 15.0512 16.1453 15.0512C15.7256 15.0512 15.2737 15.2127 14.8541 16.0202C13.692 18.5072 9.52772 27.6802 9.52772 27.6802H4.36279Z" fill="white"/>
<path d="M54.1074 27.6802L64.631 6.78265C64.631 6.78265 65.0829 5.97517 65.7285 5.91057C66.1804 5.87827 66.6969 5.94287 67.1812 6.78265C68.4401 8.91439 77.7047 27.6802 77.7047 27.6802H72.5721L67.3426 16.3109C67.3426 16.3109 66.7938 15.0512 65.9222 15.0512C65.5026 15.0512 65.0506 15.2127 64.631 16.0202C63.4689 18.5072 59.3046 27.6802 59.3046 27.6802H54.1074Z" fill="white"/>
<path d="M140.168 6.0076H144.881V14.5669L161.054 5.23242V10.1419L152.015 15.0191C152.015 15.0191 149.304 16.4725 152.08 18.0875C154.824 19.5733 161.086 22.9647 161.086 22.9647V27.9387L144.881 18.4428V27.0344H140.2V6.0076H140.168Z" fill="white"/>
<path d="M179.744 5.23242V10.2065L168.737 15.2775C168.737 15.2775 166.574 16.5048 168.543 17.7968C169.963 18.4751 179.744 23.0293 179.744 23.0293V27.9387L160.311 18.0875C160.311 18.0875 157.083 16.5371 160.537 14.793C163.959 13.0165 179.744 5.23242 179.744 5.23242Z" fill="white"/>
<path d="M136.65 15.2775C136.359 5.55548 124.867 6.00767 124.867 6.00767H113.924V27.0021C123.188 27.0021 125.642 27.0021 129.515 26.4207C137.715 24.7735 136.682 15.3744 136.65 15.2775ZM125.545 23.4492C122.317 23.4815 118.572 23.4492 118.572 23.4492V9.65747H125.545C125.545 9.65747 131.549 9.30218 131.614 15.8266C131.646 21.8989 129.483 23.1585 125.545 23.4492Z" fill="white"/>
<path d="M46.5539 18.4106V24.0952C46.5539 24.0952 42.8093 24.1275 39.5812 24.0952C35.643 23.8045 33.4801 22.5449 33.5124 16.5049C33.5447 9.9805 39.5812 10.3358 39.5812 10.3358H46.5539H51.2023V6.65369H40.2591C40.2591 6.65369 28.7671 6.2015 28.4766 15.8912C28.4121 15.9881 27.3791 25.3872 35.6107 27.0668C39.4844 27.6481 41.9054 27.6481 51.2023 27.6481V18.4106H46.5539Z" fill="white"/>
<path d="M11.2063 34.7859C10.6252 34.14 9.75366 33.7847 8.81752 33.7847H6.97751L6.46102 34.8182H8.81752C10.1088 34.8182 11.2063 35.8841 11.2063 37.1761V39.5985H6.52558C5.97681 39.5985 5.55716 39.1786 5.55716 38.6941C5.55716 38.1451 5.94453 37.7575 6.52558 37.7575H9.17261L9.65682 36.6916H6.52558C5.42803 36.6916 4.52417 37.596 4.52417 38.6941C4.52417 39.7277 5.42803 40.6321 6.52558 40.6321H12.2393V39.5985V37.1761C12.2393 36.2717 11.8842 35.3996 11.2063 34.7859Z" fill="white"/>
<path d="M30.2521 33.7847L28.6058 36.8854L27.4759 39.0494C27.4759 39.0817 27.4437 39.114 27.4437 39.114C27.2823 39.3724 26.9917 39.5662 26.6366 39.5662C26.3138 39.5662 25.9587 39.3724 25.8296 39.114C25.8296 39.114 25.8296 39.114 25.8296 39.0817L23.0535 33.7847H21.8914L24.8935 39.5339L24.9258 39.5985C25.2486 40.2122 25.8619 40.6321 26.6044 40.6321L26.6366 40.6644L26.6689 40.6321C27.3791 40.6321 28.0247 40.2445 28.3475 39.6308L28.4121 39.5016L31.4142 33.817H30.2521V33.7847Z" fill="white"/>
<path d="M44.1327 33.7847C43.1966 33.7847 42.3573 34.14 41.7439 34.7859V33.7847H40.7109V40.6321H41.7439V37.1761C41.7439 35.9164 42.8092 34.8182 44.1327 34.8182H44.7138L45.2302 33.7847H44.1327Z" fill="white"/>
<path d="M39.1291 36.692C38.9032 35.0448 37.4505 33.8174 35.7396 33.8174H34.5775C32.7052 33.8174 31.1558 35.3354 31.1558 37.2088C31.1558 39.1467 32.673 40.6648 34.5775 40.6648H37.386L37.9025 39.6312H34.5775C33.254 39.6312 32.1887 38.5331 32.1887 37.2088C32.1887 35.9491 33.2863 34.851 34.5775 34.851H35.7396C36.8695 34.851 37.8379 35.6261 38.0639 36.7243H34.2547L33.7382 37.7902H38.0639H39.1291C39.1291 37.6287 39.1614 37.4672 39.1614 37.2411C39.1614 37.015 39.1291 36.8535 39.1291 36.692Z" fill="white"/>
<path d="M52.6873 34.8182L53.1715 33.7847H46.2311L45.7146 34.8182H48.2002V37.1761C48.2002 38.1451 48.5876 39.0494 49.2332 39.6308C49.8465 40.2445 50.6859 40.6321 51.622 40.6321H52.2031L52.7195 39.5985H51.622C50.2985 39.5985 49.2332 38.5003 49.2332 37.1761V34.8182H52.6873Z" fill="white"/>
<path d="M55.3342 33.7847H54.3013V40.6321H55.3342V33.7847Z" fill="white"/>
<path d="M62.0164 36.6921H58.8852C58.3687 36.6921 57.9491 36.2722 57.9491 35.7231C57.9491 35.2386 58.3687 34.8187 58.8852 34.8187H62.2424L62.7589 33.7852H58.8852C57.8199 33.7852 56.9161 34.6895 56.9161 35.7231C56.9161 36.8213 57.8199 37.7257 58.8852 37.7257H62.0164C62.5652 37.7257 62.9526 38.1132 62.9526 38.6623C62.9526 39.1468 62.5329 39.5667 62.0164 39.5667H57.4003L56.8838 40.6003H62.0164C63.114 40.6003 64.0179 39.6959 64.0179 38.6623C64.0179 37.5642 63.114 36.6921 62.0164 36.6921Z" fill="white"/>
<path d="M66.5034 33.7847H65.4705V40.6321H66.5034V33.7847Z" fill="white"/>
<path d="M74.7028 34.7859C74.0894 34.14 73.2501 33.7847 72.314 33.7847H71.507C70.5708 33.7847 69.7315 34.14 69.1182 34.7859V33.7847H68.0852V40.6321H69.1182V37.1761C69.1182 35.9164 70.1835 34.8182 71.507 34.8182H72.314C73.6375 34.8182 74.7028 35.8841 74.7028 37.1761V40.6321H75.7358V37.1761C75.7358 36.2717 75.3484 35.3996 74.7028 34.7859Z" fill="white"/>
<path d="M80.4163 36.6921L79.8998 37.758H84.29V38.6946C84.29 39.1791 83.8703 39.599 83.3539 39.599H80.4809C79.1573 39.599 78.0921 38.5008 78.0921 37.1766C78.0921 35.9169 79.1573 34.8187 80.4809 34.8187H82.9342L83.4184 33.7852H80.4809C78.6086 33.7852 77.0591 35.3032 77.0591 37.1766C77.0591 39.1145 78.6086 40.6326 80.4809 40.6326H83.3539C83.7089 40.6326 83.9995 40.5357 84.29 40.4065C84.9033 40.0835 85.323 39.4052 85.323 38.6946V37.758V36.6921H80.4163Z" fill="white"/>
<path d="M158.181 34.8182L158.697 33.7847H151.757L151.24 34.8182H153.726V37.1761C153.726 38.1451 154.113 39.0494 154.759 39.6308C155.372 40.2445 156.212 40.6321 157.148 40.6321H157.729L158.213 39.5985H157.116C155.792 39.5985 154.727 38.5003 154.727 37.1761V34.8182H158.181Z" fill="white"/>
<path d="M160.828 33.7847H159.795V40.6321H160.828V33.7847Z" fill="white"/>
<path d="M169.027 34.7859C168.414 34.14 167.575 33.7847 166.638 33.7847H165.831C164.895 33.7847 164.056 34.14 163.41 34.7859V33.7847H162.41V40.6321H163.41V37.1761C163.41 35.9164 164.508 34.8182 165.831 34.8182H166.638C167.962 34.8182 169.027 35.8841 169.027 37.1761V40.6321H170.06V37.1761C170.06 36.2717 169.673 35.3996 169.027 34.7859Z" fill="white"/>
<path d="M174.773 36.6916L174.257 37.7575H178.647V38.6941C178.647 39.1786 178.227 39.5985 177.711 39.5985H174.838C173.514 39.5985 172.449 38.5003 172.449 37.1761C172.449 35.9164 173.514 34.8182 174.838 34.8182H177.291L177.775 33.7847H174.838C172.965 33.7847 171.416 35.3027 171.416 37.1761C171.416 39.114 172.933 40.6321 174.838 40.6321H177.711C178.066 40.6321 178.389 40.5352 178.647 40.406C179.26 40.083 179.68 39.4047 179.68 38.6941V37.7575V36.6916H174.773Z" fill="white"/>
<path d="M99.8172 36.6919H96.6214H95.3624L94.8459 37.7578H96.2017H96.5891C97.1056 37.7578 97.5253 38.1454 97.5253 38.6944C97.5253 39.1789 97.1056 39.5988 96.5891 39.5988H96.1372V40.6324H96.5891C97.6544 40.6324 98.526 39.728 98.526 38.6944C98.526 38.3069 98.4291 38.0162 98.3 37.7578H99.2684L99.8172 36.6919Z" fill="white"/>
<path d="M95.0395 39.5667L92.0374 36.6598L91.8114 36.466L91.6823 36.3368C91.5532 36.2076 91.4563 35.9815 91.4563 35.7231C91.4563 35.2386 91.876 34.8187 92.3925 34.8187H94.4907L95.0072 33.7852H92.4248C91.5532 33.7852 90.7784 34.3665 90.5202 35.2063C90.4556 35.3678 90.4233 35.5293 90.4233 35.7231C90.4233 36.1107 90.5202 36.4337 90.6816 36.6921H90.6493C89.5518 36.6921 88.6802 37.5965 88.6802 38.6946C88.6802 39.7282 89.584 40.6326 90.6493 40.6326H94.6198H96.1048H96.2016L97.0086 39.599H95.0395V39.5667ZM90.6493 39.5667C90.1328 39.5667 89.6809 39.1468 89.6809 38.6623C89.6809 38.1132 90.1328 37.7257 90.6493 37.7257H91.6177L93.5546 39.5667H90.6493Z" fill="white"/>
<path d="M115.861 34.7864C115.247 34.1404 114.408 33.7852 113.44 33.7852H113.181H112.988H112.697C111.761 33.7852 110.922 34.1404 110.308 34.7864C110.115 34.9802 109.953 35.174 109.792 35.4001C109.63 35.174 109.469 34.9802 109.275 34.7864C108.662 34.1404 107.79 33.7852 106.887 33.7852H106.628H106.435H106.176C105.24 33.7852 104.401 34.1404 103.788 34.7864V33.7852H102.755V37.1766V40.6326H103.788V39.6313V37.1766C103.788 35.9169 104.853 34.8187 106.176 34.8187H106.435H106.628H106.887C108.21 34.8187 109.275 35.8846 109.275 37.1766V40.6326H110.276V37.1766C110.276 35.8846 111.374 34.8187 112.665 34.8187H112.955H113.149H113.407C114.731 34.8187 115.828 35.8846 115.828 37.1766V39.6313V40.6326H116.829V37.1766C116.861 36.2722 116.474 35.4001 115.861 34.7864Z" fill="white"/>
<path d="M125.158 34.7859C124.544 34.14 123.673 33.7847 122.769 33.7847H120.897L120.38 34.8182H122.769C124.092 34.8182 125.158 35.8841 125.158 37.1761V39.5985H120.445C119.928 39.5985 119.509 39.1786 119.509 38.6941C119.509 38.1451 119.961 37.7575 120.445 37.7575H123.092L123.608 36.6916H120.445C119.379 36.6916 118.476 37.596 118.476 38.6941C118.476 39.7277 119.347 40.6321 120.445 40.6321H126.191V39.5985V37.1761C126.158 36.2717 125.771 35.3996 125.158 34.7859Z" fill="white"/>
<path d="M131.162 33.7847C130.226 33.7847 129.386 34.14 128.773 34.7859V33.7847H127.772V40.6321H128.773V37.1761C128.773 35.9164 129.838 34.8182 131.162 34.8182H131.711L132.227 33.7847H131.162Z" fill="white"/>
<path d="M134.293 33.7847H133.26V40.6321H134.293V33.7847Z" fill="white"/>
<path d="M140.523 36.9182C140.265 36.789 139.942 36.6921 139.587 36.6921H136.779L138.748 34.8187L139.813 33.7852H138.361L137.263 34.8187L135.326 36.6921H134.81L134.293 37.758H134.874H135.714H139.587C140.104 37.758 140.523 38.1455 140.523 38.6946V40.4065V40.6326H141.556V38.6946C141.589 37.9195 141.169 37.2735 140.523 36.9182Z" fill="white"/>
<path d="M150.853 36.692C150.595 35.0448 149.175 33.8174 147.464 33.8174H146.302C144.397 33.8174 142.88 35.3354 142.88 37.2088C142.88 39.1467 144.397 40.6648 146.302 40.6648H149.11L149.627 39.6312H146.302C144.978 39.6312 143.913 38.5331 143.913 37.2088C143.913 35.9491 144.978 34.851 146.302 34.851H147.464C148.626 34.851 149.594 35.6261 149.82 36.7243H146.011L145.495 37.7902H149.82H150.853C150.853 37.6287 150.886 37.4672 150.886 37.2411C150.918 37.015 150.886 36.8535 150.853 36.692Z" fill="white"/>
<path d="M18.7277 33.7847H16.9522L16.468 34.8182H18.76C20.0835 34.8182 21.181 35.8841 21.181 37.1761C21.181 38.5003 20.0835 39.5985 18.76 39.5985H14.8863V33.7847H13.8533V40.6321H18.7277C20.6322 40.6321 22.1817 39.114 22.1817 37.1761C22.1494 35.3027 20.6322 33.7847 18.7277 33.7847Z" fill="white"/>
<path d="M87.8411 27.0343L98.3323 6.10442C98.3323 6.10442 98.7843 5.29694 99.4299 5.23235C99.8818 5.20005 100.398 5.26464 100.915 6.10442C102.174 8.23617 111.438 27.0343 111.438 27.0343H106.306L101.044 15.665C101.044 15.665 100.495 14.4053 99.6236 14.4053C99.2039 14.4053 98.752 14.5668 98.3323 15.3743C97.1702 17.8613 93.006 27.0343 93.006 27.0343H87.8411Z" fill="white"/>
<path d="M4.36279 27.6802L14.8863 6.78265C14.8863 6.78265 15.3383 5.97517 15.9839 5.91057C16.4358 5.87827 16.9523 5.94287 17.4365 6.78265C18.6955 8.91439 27.9601 27.6802 27.9601 27.6802H22.8274L17.5656 16.3109C17.5656 16.3109 17.0169 15.0512 16.1453 15.0512C15.7256 15.0512 15.2737 15.2127 14.8541 16.0202C13.692 18.5072 9.52772 27.6802 9.52772 27.6802H4.36279Z" fill="white"/>
<path d="M54.1074 27.6802L64.631 6.78265C64.631 6.78265 65.0829 5.97517 65.7285 5.91057C66.1804 5.87827 66.6969 5.94287 67.1812 6.78265C68.4401 8.91439 77.7047 27.6802 77.7047 27.6802H72.5721L67.3426 16.3109C67.3426 16.3109 66.7938 15.0512 65.9222 15.0512C65.5026 15.0512 65.0506 15.2127 64.631 16.0202C63.4689 18.5072 59.3046 27.6802 59.3046 27.6802H54.1074Z" fill="white"/>
<path d="M140.168 6.0076H144.881V14.5669L161.054 5.23242V10.1419L152.015 15.0191C152.015 15.0191 149.304 16.4725 152.08 18.0875C154.824 19.5733 161.086 22.9647 161.086 22.9647V27.9387L144.881 18.4428V27.0344H140.2V6.0076H140.168Z" fill="white"/>
<path d="M179.744 5.23242V10.2065L168.737 15.2775C168.737 15.2775 166.574 16.5048 168.543 17.7968C169.963 18.4751 179.744 23.0293 179.744 23.0293V27.9387L160.311 18.0875C160.311 18.0875 157.083 16.5371 160.537 14.793C163.959 13.0165 179.744 5.23242 179.744 5.23242Z" fill="white"/>
<path d="M136.65 15.2775C136.359 5.55548 124.867 6.00767 124.867 6.00767H113.924V27.0021C123.188 27.0021 125.642 27.0021 129.515 26.4207C137.715 24.7735 136.682 15.3744 136.65 15.2775ZM125.545 23.4492C122.317 23.4815 118.572 23.4492 118.572 23.4492V9.65747H125.545C125.545 9.65747 131.549 9.30218 131.614 15.8266C131.646 21.8989 129.483 23.1585 125.545 23.4492Z" fill="white"/>
<path d="M46.5539 18.4106V24.0952C46.5539 24.0952 42.8093 24.1275 39.5812 24.0952C35.643 23.8045 33.4801 22.5449 33.5124 16.5049C33.5447 9.9805 39.5812 10.3358 39.5812 10.3358H46.5539H51.2023V6.65369H40.2591C40.2591 6.65369 28.7671 6.2015 28.4766 15.8912C28.4121 15.9881 27.3791 25.3872 35.6107 27.0668C39.4844 27.6481 41.9054 27.6481 51.2023 27.6481V18.4106H46.5539Z" fill="white"/>
</svg>
