<svg width="16" height="17" viewBox="0 0 16 17" fill="none" xmlns="http://www.w3.org/2000/svg">
<path d="M15 11.9426V4.44263C15 3.75096 14.4486 3.19263 13.7654 3.19263H2.23457C1.55144 3.19263 1 3.75096 1 4.44263V11.9426C1 12.6343 1.55144 13.1926 2.23457 13.1926H13.7654C14.4486 13.1926 15 12.6343 15 11.9426ZM13.9218 4.35096C14.1934 4.62596 14.0453 4.90929 13.8971 5.05096L10.5556 8.15096L13.7654 11.5343C13.8642 11.651 13.93 11.8343 13.8148 11.9593C13.7078 12.0926 13.4609 12.0843 13.3539 12.001L9.7572 8.89263L7.99588 10.5176L6.2428 8.89263L2.64609 12.001C2.53909 12.0843 2.29218 12.0926 2.18519 11.9593C2.06996 11.8343 2.1358 11.651 2.23457 11.5343L5.44444 8.15096L2.10288 5.05096C1.95473 4.90929 1.80658 4.62596 2.07819 4.35096C2.34979 4.07596 2.62963 4.20929 2.86008 4.40929L7.99588 8.60929L13.1399 4.40929C13.3704 4.20929 13.6502 4.07596 13.9218 4.35096Z" fill="white"/>
</svg>
