<svg width="184" height="46" viewBox="0 0 184 46" fill="none" xmlns="http://www.w3.org/2000/svg">
<path d="M11.3254 34.7859C10.7444 34.14 9.8728 33.7847 8.93666 33.7847H7.09665L6.58016 34.8182H8.93666C10.2279 34.8182 11.3254 35.8841 11.3254 37.1761V39.5985H6.64472C6.09595 39.5985 5.6763 39.1786 5.6763 38.6941C5.6763 38.1451 6.06367 37.7575 6.64472 37.7575H9.29175L9.77596 36.6916H6.64472C5.54717 36.6916 4.64331 37.596 4.64331 38.6941C4.64331 39.7277 5.54717 40.6321 6.64472 40.6321H12.3584V39.5985V37.1761C12.3584 36.2717 12.0033 35.3996 11.3254 34.7859Z" fill="white"/>
<path d="M30.3711 33.7847L28.7248 36.8854L27.595 39.0494C27.595 39.0817 27.5627 39.114 27.5627 39.114C27.4013 39.3724 27.1107 39.5662 26.7557 39.5662C26.4329 39.5662 26.0778 39.3724 25.9486 39.114C25.9486 39.114 25.9486 39.114 25.9486 39.0817L23.1725 33.7847H22.0104L25.0125 39.5339L25.0448 39.5985C25.3676 40.2122 25.9809 40.6321 26.7234 40.6321L26.7557 40.6644L26.7879 40.6321C27.4981 40.6321 28.1437 40.2445 28.4665 39.6308L28.5311 39.5016L31.5332 33.817H30.3711V33.7847Z" fill="white"/>
<path d="M44.2518 33.7847C43.3157 33.7847 42.4764 34.14 41.8631 34.7859V33.7847H40.8301V40.6321H41.8631V37.1761C41.8631 35.9164 42.9283 34.8182 44.2518 34.8182H44.8329L45.3494 33.7847H44.2518Z" fill="white"/>
<path d="M39.2483 36.692C39.0223 35.0448 37.5697 33.8174 35.8588 33.8174H34.6967C32.8244 33.8174 31.2749 35.3354 31.2749 37.2088C31.2749 39.1467 32.7921 40.6648 34.6967 40.6648H37.5051L38.0216 39.6312H34.6967C33.3732 39.6312 32.3079 38.5331 32.3079 37.2088C32.3079 35.9491 33.4054 34.851 34.6967 34.851H35.8588C36.9886 34.851 37.957 35.6261 38.183 36.7243H34.3739L33.8574 37.7902H38.183H39.2483C39.2483 37.6287 39.2805 37.4672 39.2805 37.2411C39.2805 37.015 39.2483 36.8535 39.2483 36.692Z" fill="white"/>
<path d="M52.8063 34.8182L53.2905 33.7847H46.3501L45.8336 34.8182H48.3192V37.1761C48.3192 38.1451 48.7066 39.0494 49.3522 39.6308C49.9656 40.2445 50.8049 40.6321 51.741 40.6321H52.3221L52.8386 39.5985H51.741C50.4175 39.5985 49.3522 38.5003 49.3522 37.1761V34.8182H52.8063Z" fill="white"/>
<path d="M55.4534 33.7847H54.4204V40.6321H55.4534V33.7847Z" fill="white"/>
<path d="M62.1356 36.6921H59.0043C58.4878 36.6921 58.0682 36.2722 58.0682 35.7231C58.0682 35.2386 58.4878 34.8187 59.0043 34.8187H62.3615L62.878 33.7852H59.0043C57.9391 33.7852 57.0352 34.6895 57.0352 35.7231C57.0352 36.8213 57.9391 37.7257 59.0043 37.7257H62.1356C62.6844 37.7257 63.0717 38.1132 63.0717 38.6623C63.0717 39.1468 62.6521 39.5667 62.1356 39.5667H57.5194L57.0029 40.6003H62.1356C63.2331 40.6003 64.137 39.6959 64.137 38.6623C64.137 37.5642 63.2331 36.6921 62.1356 36.6921Z" fill="white"/>
<path d="M66.6225 33.7847H65.5895V40.6321H66.6225V33.7847Z" fill="white"/>
<path d="M74.8218 34.7859C74.2085 34.14 73.3692 33.7847 72.433 33.7847H71.626C70.6898 33.7847 69.8505 34.14 69.2372 34.7859V33.7847H68.2042V40.6321H69.2372V37.1761C69.2372 35.9164 70.3025 34.8182 71.626 34.8182H72.433C73.7565 34.8182 74.8218 35.8841 74.8218 37.1761V40.6321H75.8548V37.1761C75.8548 36.2717 75.4674 35.3996 74.8218 34.7859Z" fill="white"/>
<path d="M80.5354 36.6921L80.0189 37.758H84.4091V38.6946C84.4091 39.1791 83.9895 39.599 83.473 39.599H80.6C79.2765 39.599 78.2112 38.5008 78.2112 37.1766C78.2112 35.9169 79.2765 34.8187 80.6 34.8187H83.0533L83.5375 33.7852H80.6C78.7277 33.7852 77.1782 35.3032 77.1782 37.1766C77.1782 39.1145 78.7277 40.6326 80.6 40.6326H83.473C83.8281 40.6326 84.1186 40.5357 84.4091 40.4065C85.0225 40.0835 85.4421 39.4052 85.4421 38.6946V37.758V36.6921H80.5354Z" fill="white"/>
<path d="M158.3 34.8182L158.816 33.7847H151.876L151.36 34.8182H153.845V37.1761C153.845 38.1451 154.233 39.0494 154.878 39.6308C155.492 40.2445 156.331 40.6321 157.267 40.6321H157.848L158.332 39.5985H157.235C155.911 39.5985 154.846 38.5003 154.846 37.1761V34.8182H158.3Z" fill="white"/>
<path d="M160.947 33.7847H159.914V40.6321H160.947V33.7847Z" fill="white"/>
<path d="M169.146 34.7859C168.533 34.14 167.694 33.7847 166.758 33.7847H165.951C165.014 33.7847 164.175 34.14 163.53 34.7859V33.7847H162.529V40.6321H163.53V37.1761C163.53 35.9164 164.627 34.8182 165.951 34.8182H166.758C168.081 34.8182 169.146 35.8841 169.146 37.1761V40.6321H170.179V37.1761C170.179 36.2717 169.792 35.3996 169.146 34.7859Z" fill="white"/>
<path d="M174.892 36.6916L174.376 37.7575H178.766V38.6941C178.766 39.1786 178.346 39.5985 177.83 39.5985H174.957C173.633 39.5985 172.568 38.5003 172.568 37.1761C172.568 35.9164 173.633 34.8182 174.957 34.8182H177.41L177.894 33.7847H174.957C173.085 33.7847 171.535 35.3027 171.535 37.1761C171.535 39.114 173.052 40.6321 174.957 40.6321H177.83C178.185 40.6321 178.508 40.5352 178.766 40.406C179.379 40.083 179.799 39.4047 179.799 38.6941V37.7575V36.6916H174.892Z" fill="white"/>
<path d="M99.9363 36.6919H96.7405H95.4816L94.9651 37.7578H96.3209H96.7083C97.2247 37.7578 97.6444 38.1454 97.6444 38.6944C97.6444 39.1789 97.2247 39.5988 96.7083 39.5988H96.2563V40.6324H96.7083C97.7735 40.6324 98.6451 39.728 98.6451 38.6944C98.6451 38.3069 98.5483 38.0162 98.4191 37.7578H99.3876L99.9363 36.6919Z" fill="white"/>
<path d="M95.1586 39.5667L92.1565 36.6598L91.9305 36.466L91.8014 36.3368C91.6723 36.2076 91.5755 35.9815 91.5755 35.7231C91.5755 35.2386 91.9951 34.8187 92.5116 34.8187H94.6099L95.1264 33.7852H92.5439C91.6723 33.7852 90.8976 34.3665 90.6393 35.2063C90.5748 35.3678 90.5425 35.5293 90.5425 35.7231C90.5425 36.1107 90.6393 36.4337 90.8007 36.6921H90.7684C89.6709 36.6921 88.7993 37.5965 88.7993 38.6946C88.7993 39.7282 89.7032 40.6326 90.7684 40.6326H94.739H96.2239H96.3207L97.1278 39.599H95.1586V39.5667ZM90.7684 39.5667C90.252 39.5667 89.8 39.1468 89.8 38.6623C89.8 38.1132 90.252 37.7257 90.7684 37.7257H91.7369L93.6737 39.5667H90.7684Z" fill="white"/>
<path d="M115.98 34.7864C115.366 34.1404 114.527 33.7852 113.559 33.7852H113.3H113.107H112.816C111.88 33.7852 111.041 34.1404 110.427 34.7864C110.234 34.9802 110.072 35.174 109.911 35.4001C109.75 35.174 109.588 34.9802 109.395 34.7864C108.781 34.1404 107.91 33.7852 107.006 33.7852H106.747H106.554H106.296C105.359 33.7852 104.52 34.1404 103.907 34.7864V33.7852H102.874V37.1766V40.6326H103.907V39.6313V37.1766C103.907 35.9169 104.972 34.8187 106.296 34.8187H106.554H106.747H107.006C108.329 34.8187 109.395 35.8846 109.395 37.1766V40.6326H110.395V37.1766C110.395 35.8846 111.493 34.8187 112.784 34.8187H113.075H113.268H113.526C114.85 34.8187 115.948 35.8846 115.948 37.1766V39.6313V40.6326H116.948V37.1766C116.98 36.2722 116.593 35.4001 115.98 34.7864Z" fill="white"/>
<path d="M125.277 34.7859C124.663 34.14 123.792 33.7847 122.888 33.7847H121.016L120.499 34.8182H122.888C124.211 34.8182 125.277 35.8841 125.277 37.1761V39.5985H120.564C120.047 39.5985 119.628 39.1786 119.628 38.6941C119.628 38.1451 120.08 37.7575 120.564 37.7575H123.211L123.727 36.6916H120.564C119.498 36.6916 118.595 37.596 118.595 38.6941C118.595 39.7277 119.466 40.6321 120.564 40.6321H126.31V39.5985V37.1761C126.277 36.2717 125.89 35.3996 125.277 34.7859Z" fill="white"/>
<path d="M131.281 33.7847C130.345 33.7847 129.506 34.14 128.892 34.7859V33.7847H127.891V40.6321H128.892V37.1761C128.892 35.9164 129.957 34.8182 131.281 34.8182H131.83L132.346 33.7847H131.281Z" fill="white"/>
<path d="M134.412 33.7847H133.379V40.6321H134.412V33.7847Z" fill="white"/>
<path d="M140.643 36.9182C140.384 36.789 140.062 36.6921 139.706 36.6921H136.898L138.867 34.8187L139.932 33.7852H138.48L137.382 34.8187L135.445 36.6921H134.929L134.412 37.758H134.993H135.833H139.706C140.223 37.758 140.643 38.1455 140.643 38.6946V40.4065V40.6326H141.676V38.6946C141.708 37.9195 141.288 37.2735 140.643 36.9182Z" fill="white"/>
<path d="M150.972 36.692C150.714 35.0448 149.294 33.8174 147.583 33.8174H146.421C144.516 33.8174 142.999 35.3354 142.999 37.2088C142.999 39.1467 144.516 40.6648 146.421 40.6648H149.229L149.746 39.6312H146.421C145.097 39.6312 144.032 38.5331 144.032 37.2088C144.032 35.9491 145.097 34.851 146.421 34.851H147.583C148.745 34.851 149.713 35.6261 149.939 36.7243H146.13L145.614 37.7902H149.939H150.972C150.972 37.6287 151.005 37.4672 151.005 37.2411C151.037 37.015 151.005 36.8535 150.972 36.692Z" fill="white"/>
<path d="M18.8469 33.7847H17.0715L16.5873 34.8182H18.8792C20.2027 34.8182 21.3003 35.8841 21.3003 37.1761C21.3003 38.5003 20.2027 39.5985 18.8792 39.5985H15.0055V33.7847H13.9725V40.6321H18.8469C20.7515 40.6321 22.301 39.114 22.301 37.1761C22.2687 35.3027 20.7515 33.7847 18.8469 33.7847Z" fill="white"/>
<path d="M87.9601 27.0343L98.4513 6.10442C98.4513 6.10442 98.9033 5.29694 99.5489 5.23235C100.001 5.20005 100.517 5.26464 101.034 6.10442C102.293 8.23617 111.557 27.0343 111.557 27.0343H106.425L101.163 15.665C101.163 15.665 100.614 14.4053 99.7426 14.4053C99.3229 14.4053 98.871 14.5668 98.4513 15.3743C97.2892 17.8613 93.125 27.0343 93.125 27.0343H87.9601Z" fill="white"/>
<path d="M4.48193 27.6802L15.0055 6.78265C15.0055 6.78265 15.4574 5.97517 16.103 5.91057C16.555 5.87827 17.0715 5.94287 17.5557 6.78265C18.8146 8.91439 28.0792 27.6802 28.0792 27.6802H22.9466L17.6848 16.3109C17.6848 16.3109 17.136 15.0512 16.2644 15.0512C15.8448 15.0512 15.3929 15.2127 14.9732 16.0202C13.8111 18.5072 9.64687 27.6802 9.64687 27.6802H4.48193Z" fill="white"/>
<path d="M54.2266 27.6802L64.7501 6.78265C64.7501 6.78265 65.202 5.97517 65.8477 5.91057C66.2996 5.87827 66.8161 5.94287 67.3003 6.78265C68.5592 8.91439 77.8238 27.6802 77.8238 27.6802H72.6912L67.4617 16.3109C67.4617 16.3109 66.9129 15.0512 66.0413 15.0512C65.6217 15.0512 65.1698 15.2127 64.7501 16.0202C63.588 18.5072 59.4238 27.6802 59.4238 27.6802H54.2266Z" fill="white"/>
<path d="M140.287 6.0076H145V14.5669L161.173 5.23242V10.1419L152.134 15.0191C152.134 15.0191 149.423 16.4725 152.199 18.0875C154.943 19.5733 161.205 22.9647 161.205 22.9647V27.9387L145 18.4428V27.0344H140.32V6.0076H140.287Z" fill="white"/>
<path d="M179.864 5.23242V10.2065L168.856 15.2775C168.856 15.2775 166.693 16.5048 168.662 17.7968C170.083 18.4751 179.864 23.0293 179.864 23.0293V27.9387L160.431 18.0875C160.431 18.0875 157.202 16.5371 160.657 14.793C164.078 13.0165 179.864 5.23242 179.864 5.23242Z" fill="white"/>
<path d="M136.769 15.2775C136.478 5.55548 124.986 6.00767 124.986 6.00767H114.043V27.0021C123.308 27.0021 125.761 27.0021 129.635 26.4207C137.834 24.7735 136.801 15.3744 136.769 15.2775ZM125.664 23.4492C122.436 23.4815 118.691 23.4492 118.691 23.4492V9.65747H125.664C125.664 9.65747 131.668 9.30218 131.733 15.8266C131.765 21.8989 129.602 23.1585 125.664 23.4492Z" fill="white"/>
<path d="M46.6729 18.4106V24.0952C46.6729 24.0952 42.9283 24.1275 39.7002 24.0952C35.762 23.8045 33.5992 22.5449 33.6314 16.5049C33.6637 9.9805 39.7002 10.3358 39.7002 10.3358H46.6729H51.3213V6.65369H40.3781C40.3781 6.65369 28.8862 6.2015 28.5956 15.8912C28.5311 15.9881 27.4981 25.3872 35.7297 27.0668C39.6034 27.6481 42.0245 27.6481 51.3213 27.6481V18.4106H46.6729Z" fill="white"/>
<path d="M11.3254 34.7859C10.7444 34.14 9.8728 33.7847 8.93666 33.7847H7.09665L6.58016 34.8182H8.93666C10.2279 34.8182 11.3254 35.8841 11.3254 37.1761V39.5985H6.64472C6.09595 39.5985 5.6763 39.1786 5.6763 38.6941C5.6763 38.1451 6.06367 37.7575 6.64472 37.7575H9.29175L9.77596 36.6916H6.64472C5.54717 36.6916 4.64331 37.596 4.64331 38.6941C4.64331 39.7277 5.54717 40.6321 6.64472 40.6321H12.3584V39.5985V37.1761C12.3584 36.2717 12.0033 35.3996 11.3254 34.7859Z" fill="white"/>
<path d="M30.3711 33.7847L28.7248 36.8854L27.595 39.0494C27.595 39.0817 27.5627 39.114 27.5627 39.114C27.4013 39.3724 27.1107 39.5662 26.7557 39.5662C26.4329 39.5662 26.0778 39.3724 25.9486 39.114C25.9486 39.114 25.9486 39.114 25.9486 39.0817L23.1725 33.7847H22.0104L25.0125 39.5339L25.0448 39.5985C25.3676 40.2122 25.9809 40.6321 26.7234 40.6321L26.7557 40.6644L26.7879 40.6321C27.4981 40.6321 28.1437 40.2445 28.4665 39.6308L28.5311 39.5016L31.5332 33.817H30.3711V33.7847Z" fill="white"/>
<path d="M44.2518 33.7847C43.3157 33.7847 42.4764 34.14 41.8631 34.7859V33.7847H40.8301V40.6321H41.8631V37.1761C41.8631 35.9164 42.9283 34.8182 44.2518 34.8182H44.8329L45.3494 33.7847H44.2518Z" fill="white"/>
<path d="M39.2483 36.692C39.0223 35.0448 37.5697 33.8174 35.8588 33.8174H34.6967C32.8244 33.8174 31.2749 35.3354 31.2749 37.2088C31.2749 39.1467 32.7921 40.6648 34.6967 40.6648H37.5051L38.0216 39.6312H34.6967C33.3732 39.6312 32.3079 38.5331 32.3079 37.2088C32.3079 35.9491 33.4054 34.851 34.6967 34.851H35.8588C36.9886 34.851 37.957 35.6261 38.183 36.7243H34.3739L33.8574 37.7902H38.183H39.2483C39.2483 37.6287 39.2805 37.4672 39.2805 37.2411C39.2805 37.015 39.2483 36.8535 39.2483 36.692Z" fill="white"/>
<path d="M52.8063 34.8182L53.2905 33.7847H46.3501L45.8336 34.8182H48.3192V37.1761C48.3192 38.1451 48.7066 39.0494 49.3522 39.6308C49.9656 40.2445 50.8049 40.6321 51.741 40.6321H52.3221L52.8386 39.5985H51.741C50.4175 39.5985 49.3522 38.5003 49.3522 37.1761V34.8182H52.8063Z" fill="white"/>
<path d="M55.4534 33.7847H54.4204V40.6321H55.4534V33.7847Z" fill="white"/>
<path d="M62.1356 36.6921H59.0043C58.4878 36.6921 58.0682 36.2722 58.0682 35.7231C58.0682 35.2386 58.4878 34.8187 59.0043 34.8187H62.3615L62.878 33.7852H59.0043C57.9391 33.7852 57.0352 34.6895 57.0352 35.7231C57.0352 36.8213 57.9391 37.7257 59.0043 37.7257H62.1356C62.6844 37.7257 63.0717 38.1132 63.0717 38.6623C63.0717 39.1468 62.6521 39.5667 62.1356 39.5667H57.5194L57.0029 40.6003H62.1356C63.2331 40.6003 64.137 39.6959 64.137 38.6623C64.137 37.5642 63.2331 36.6921 62.1356 36.6921Z" fill="white"/>
<path d="M66.6225 33.7847H65.5895V40.6321H66.6225V33.7847Z" fill="white"/>
<path d="M74.8218 34.7859C74.2085 34.14 73.3692 33.7847 72.433 33.7847H71.626C70.6898 33.7847 69.8505 34.14 69.2372 34.7859V33.7847H68.2042V40.6321H69.2372V37.1761C69.2372 35.9164 70.3025 34.8182 71.626 34.8182H72.433C73.7565 34.8182 74.8218 35.8841 74.8218 37.1761V40.6321H75.8548V37.1761C75.8548 36.2717 75.4674 35.3996 74.8218 34.7859Z" fill="white"/>
<path d="M80.5354 36.6921L80.0189 37.758H84.4091V38.6946C84.4091 39.1791 83.9895 39.599 83.473 39.599H80.6C79.2765 39.599 78.2112 38.5008 78.2112 37.1766C78.2112 35.9169 79.2765 34.8187 80.6 34.8187H83.0533L83.5375 33.7852H80.6C78.7277 33.7852 77.1782 35.3032 77.1782 37.1766C77.1782 39.1145 78.7277 40.6326 80.6 40.6326H83.473C83.8281 40.6326 84.1186 40.5357 84.4091 40.4065C85.0225 40.0835 85.4421 39.4052 85.4421 38.6946V37.758V36.6921H80.5354Z" fill="white"/>
<path d="M158.3 34.8182L158.816 33.7847H151.876L151.36 34.8182H153.845V37.1761C153.845 38.1451 154.233 39.0494 154.878 39.6308C155.492 40.2445 156.331 40.6321 157.267 40.6321H157.848L158.332 39.5985H157.235C155.911 39.5985 154.846 38.5003 154.846 37.1761V34.8182H158.3Z" fill="white"/>
<path d="M160.947 33.7847H159.914V40.6321H160.947V33.7847Z" fill="white"/>
<path d="M169.146 34.7859C168.533 34.14 167.694 33.7847 166.758 33.7847H165.951C165.014 33.7847 164.175 34.14 163.53 34.7859V33.7847H162.529V40.6321H163.53V37.1761C163.53 35.9164 164.627 34.8182 165.951 34.8182H166.758C168.081 34.8182 169.146 35.8841 169.146 37.1761V40.6321H170.179V37.1761C170.179 36.2717 169.792 35.3996 169.146 34.7859Z" fill="white"/>
<path d="M174.892 36.6916L174.376 37.7575H178.766V38.6941C178.766 39.1786 178.346 39.5985 177.83 39.5985H174.957C173.633 39.5985 172.568 38.5003 172.568 37.1761C172.568 35.9164 173.633 34.8182 174.957 34.8182H177.41L177.894 33.7847H174.957C173.085 33.7847 171.535 35.3027 171.535 37.1761C171.535 39.114 173.052 40.6321 174.957 40.6321H177.83C178.185 40.6321 178.508 40.5352 178.766 40.406C179.379 40.083 179.799 39.4047 179.799 38.6941V37.7575V36.6916H174.892Z" fill="white"/>
<path d="M99.9363 36.6919H96.7405H95.4816L94.9651 37.7578H96.3209H96.7083C97.2247 37.7578 97.6444 38.1454 97.6444 38.6944C97.6444 39.1789 97.2247 39.5988 96.7083 39.5988H96.2563V40.6324H96.7083C97.7735 40.6324 98.6451 39.728 98.6451 38.6944C98.6451 38.3069 98.5483 38.0162 98.4191 37.7578H99.3876L99.9363 36.6919Z" fill="white"/>
<path d="M95.1586 39.5667L92.1565 36.6598L91.9305 36.466L91.8014 36.3368C91.6723 36.2076 91.5755 35.9815 91.5755 35.7231C91.5755 35.2386 91.9951 34.8187 92.5116 34.8187H94.6099L95.1264 33.7852H92.5439C91.6723 33.7852 90.8976 34.3665 90.6393 35.2063C90.5748 35.3678 90.5425 35.5293 90.5425 35.7231C90.5425 36.1107 90.6393 36.4337 90.8007 36.6921H90.7684C89.6709 36.6921 88.7993 37.5965 88.7993 38.6946C88.7993 39.7282 89.7032 40.6326 90.7684 40.6326H94.739H96.2239H96.3207L97.1278 39.599H95.1586V39.5667ZM90.7684 39.5667C90.252 39.5667 89.8 39.1468 89.8 38.6623C89.8 38.1132 90.252 37.7257 90.7684 37.7257H91.7369L93.6737 39.5667H90.7684Z" fill="white"/>
<path d="M115.98 34.7864C115.366 34.1404 114.527 33.7852 113.559 33.7852H113.3H113.107H112.816C111.88 33.7852 111.041 34.1404 110.427 34.7864C110.234 34.9802 110.072 35.174 109.911 35.4001C109.75 35.174 109.588 34.9802 109.395 34.7864C108.781 34.1404 107.91 33.7852 107.006 33.7852H106.747H106.554H106.296C105.359 33.7852 104.52 34.1404 103.907 34.7864V33.7852H102.874V37.1766V40.6326H103.907V39.6313V37.1766C103.907 35.9169 104.972 34.8187 106.296 34.8187H106.554H106.747H107.006C108.329 34.8187 109.395 35.8846 109.395 37.1766V40.6326H110.395V37.1766C110.395 35.8846 111.493 34.8187 112.784 34.8187H113.075H113.268H113.526C114.85 34.8187 115.948 35.8846 115.948 37.1766V39.6313V40.6326H116.948V37.1766C116.98 36.2722 116.593 35.4001 115.98 34.7864Z" fill="white"/>
<path d="M125.277 34.7859C124.663 34.14 123.792 33.7847 122.888 33.7847H121.016L120.499 34.8182H122.888C124.211 34.8182 125.277 35.8841 125.277 37.1761V39.5985H120.564C120.047 39.5985 119.628 39.1786 119.628 38.6941C119.628 38.1451 120.08 37.7575 120.564 37.7575H123.211L123.727 36.6916H120.564C119.498 36.6916 118.595 37.596 118.595 38.6941C118.595 39.7277 119.466 40.6321 120.564 40.6321H126.31V39.5985V37.1761C126.277 36.2717 125.89 35.3996 125.277 34.7859Z" fill="white"/>
<path d="M131.281 33.7847C130.345 33.7847 129.506 34.14 128.892 34.7859V33.7847H127.891V40.6321H128.892V37.1761C128.892 35.9164 129.957 34.8182 131.281 34.8182H131.83L132.346 33.7847H131.281Z" fill="white"/>
<path d="M134.412 33.7847H133.379V40.6321H134.412V33.7847Z" fill="white"/>
<path d="M140.643 36.9182C140.384 36.789 140.062 36.6921 139.706 36.6921H136.898L138.867 34.8187L139.932 33.7852H138.48L137.382 34.8187L135.445 36.6921H134.929L134.412 37.758H134.993H135.833H139.706C140.223 37.758 140.643 38.1455 140.643 38.6946V40.4065V40.6326H141.676V38.6946C141.708 37.9195 141.288 37.2735 140.643 36.9182Z" fill="white"/>
<path d="M150.972 36.692C150.714 35.0448 149.294 33.8174 147.583 33.8174H146.421C144.516 33.8174 142.999 35.3354 142.999 37.2088C142.999 39.1467 144.516 40.6648 146.421 40.6648H149.229L149.746 39.6312H146.421C145.097 39.6312 144.032 38.5331 144.032 37.2088C144.032 35.9491 145.097 34.851 146.421 34.851H147.583C148.745 34.851 149.713 35.6261 149.939 36.7243H146.13L145.614 37.7902H149.939H150.972C150.972 37.6287 151.005 37.4672 151.005 37.2411C151.037 37.015 151.005 36.8535 150.972 36.692Z" fill="white"/>
<path d="M18.8469 33.7847H17.0715L16.5873 34.8182H18.8792C20.2027 34.8182 21.3003 35.8841 21.3003 37.1761C21.3003 38.5003 20.2027 39.5985 18.8792 39.5985H15.0055V33.7847H13.9725V40.6321H18.8469C20.7515 40.6321 22.301 39.114 22.301 37.1761C22.2687 35.3027 20.7515 33.7847 18.8469 33.7847Z" fill="white"/>
<path d="M87.9601 27.0343L98.4513 6.10442C98.4513 6.10442 98.9033 5.29694 99.5489 5.23235C100.001 5.20005 100.517 5.26464 101.034 6.10442C102.293 8.23617 111.557 27.0343 111.557 27.0343H106.425L101.163 15.665C101.163 15.665 100.614 14.4053 99.7426 14.4053C99.3229 14.4053 98.871 14.5668 98.4513 15.3743C97.2892 17.8613 93.125 27.0343 93.125 27.0343H87.9601Z" fill="white"/>
<path d="M4.48193 27.6802L15.0055 6.78265C15.0055 6.78265 15.4574 5.97517 16.103 5.91057C16.555 5.87827 17.0715 5.94287 17.5557 6.78265C18.8146 8.91439 28.0792 27.6802 28.0792 27.6802H22.9466L17.6848 16.3109C17.6848 16.3109 17.136 15.0512 16.2644 15.0512C15.8448 15.0512 15.3929 15.2127 14.9732 16.0202C13.8111 18.5072 9.64687 27.6802 9.64687 27.6802H4.48193Z" fill="white"/>
<path d="M54.2266 27.6802L64.7501 6.78265C64.7501 6.78265 65.202 5.97517 65.8477 5.91057C66.2996 5.87827 66.8161 5.94287 67.3003 6.78265C68.5592 8.91439 77.8238 27.6802 77.8238 27.6802H72.6912L67.4617 16.3109C67.4617 16.3109 66.9129 15.0512 66.0413 15.0512C65.6217 15.0512 65.1698 15.2127 64.7501 16.0202C63.588 18.5072 59.4238 27.6802 59.4238 27.6802H54.2266Z" fill="white"/>
<path d="M140.287 6.0076H145V14.5669L161.173 5.23242V10.1419L152.134 15.0191C152.134 15.0191 149.423 16.4725 152.199 18.0875C154.943 19.5733 161.205 22.9647 161.205 22.9647V27.9387L145 18.4428V27.0344H140.32V6.0076H140.287Z" fill="white"/>
<path d="M179.864 5.23242V10.2065L168.856 15.2775C168.856 15.2775 166.693 16.5048 168.662 17.7968C170.083 18.4751 179.864 23.0293 179.864 23.0293V27.9387L160.431 18.0875C160.431 18.0875 157.202 16.5371 160.657 14.793C164.078 13.0165 179.864 5.23242 179.864 5.23242Z" fill="white"/>
<path d="M136.769 15.2775C136.478 5.55548 124.986 6.00767 124.986 6.00767H114.043V27.0021C123.308 27.0021 125.761 27.0021 129.635 26.4207C137.834 24.7735 136.801 15.3744 136.769 15.2775ZM125.664 23.4492C122.436 23.4815 118.691 23.4492 118.691 23.4492V9.65747H125.664C125.664 9.65747 131.668 9.30218 131.733 15.8266C131.765 21.8989 129.602 23.1585 125.664 23.4492Z" fill="white"/>
<path d="M46.6729 18.4106V24.0952C46.6729 24.0952 42.9283 24.1275 39.7002 24.0952C35.762 23.8045 33.5992 22.5449 33.6314 16.5049C33.6637 9.9805 39.7002 10.3358 39.7002 10.3358H46.6729H51.3213V6.65369H40.3781C40.3781 6.65369 28.8862 6.2015 28.5956 15.8912C28.5311 15.9881 27.4981 25.3872 35.7297 27.0668C39.6034 27.6481 42.0245 27.6481 51.3213 27.6481V18.4106H46.6729Z" fill="white"/>
</svg>
