<svg width="100" height="49" viewBox="0 0 100 49" fill="none" xmlns="http://www.w3.org/2000/svg">
<path d="M37.7379 6.36768C42.5712 4.20101 61.0379 -1.63222 70.2379 2.36778C79.4379 6.36778 93.7379 12.3678 99.7379 14.8677C92.0712 12.8677 75.8379 8.96775 72.2379 9.36775C83.7379 13.3677 87.2379 18.3677 87.2379 24.3677C85.9046 33.2011 79.5663 51.156 76.7379 44.3677C75.2257 40.7385 75.9088 36.5605 77.2379 33.4934C78.4347 30.7318 80.7246 27.4625 83.2379 31.0517C85.0259 33.605 84.2616 38.1986 68.2379 39.8677C49.0379 41.8677 34.9046 39.3677 30.2379 37.8677C17.2379 35.2011 -6.36208 28.2677 3.23792 21.8677C12.8379 15.4677 46.5712 15.2011 62.2379 15.8677" stroke="#00A8DA"/>
<path d="M81.2379 13.8677C69.4046 11.701 47.8379 8.96766 52.2379 15.3677C57.7379 23.3677 78.7379 25.8677 82.2379 25.3677C85.7379 24.8677 75.2379 16.8677 61.2379 15.3677" stroke="#00A8DA"/>
<path d="M64.7379 19.8677C64.2379 20.8677 53.7379 31.3677 30.7379 37.8677" stroke="#00A8DA"/>
<path d="M42.2379 5.3677C46.0712 4.8677 53.1379 4.5677 50.7379 7.3677C47.7379 10.8677 32.2379 29.8677 17.7379 32.3677" stroke="#00A8DA"/>
<path d="M92.2379 13.3677C95.5713 14.5343 98.3379 18.2677 82.7379 23.8677C63.2379 30.8677 58.7379 40.8677 55.7379 42.8677C52.7379 44.8677 41.7379 48.8677 27.2379 34.3677C12.7379 19.8677 15.7379 8.86767 27.2379 6.86767C38.7379 4.86767 47.7379 8.36767 55.7379 13.3677C63.7379 18.3677 72.7379 24.3677 68.7379 27.3677C64.7379 30.3677 45.2379 27.3677 36.2379 22.3677C27.2379 17.3677 22.2379 7.36768 42.2379 5.36768" stroke="#00A8DA"/>
<path d="M60.7379 15.8677C70.7379 16.201 91.8379 18.2677 96.2379 23.8677C101.738 30.8677 98.2379 45.3677 77.2379 47.3677C60.4379 48.9677 34.2379 48.0343 23.2379 47.3677C19.9046 47.201 13.2379 45.3677 13.2379 39.3677C13.2379 31.8677 10.7379 9.86768 14.2379 9.86768C17.7379 9.86768 36.2379 17.8677 38.2379 39.3677C38.7379 40.3677 34.7379 42.3677 30.2379 42.3677C25.7379 42.701 16.6379 41.8677 16.2379 35.8677C15.7379 28.3677 36.2379 18.8677 43.2379 15.8677" stroke="#00A8DA"/>
<path d="M64.7379 19.8677C58.9046 19.5344 45.0379 19.6677 36.2379 22.8677" stroke="#00A8DA"/>
<path d="M42.7379 24.8677C43.4046 27.201 43.8379 32.4677 40.2379 34.8677" stroke="#00A8DA"/>
<path d="M7.23792 19.8677C8.73792 21.5343 12.0379 26.5677 13.2379 33.3677" stroke="#00A8DA"/>
<path d="M16.7379 34.8677C17.4955 37.2881 20.5561 41.8613 30.7379 37.8677" stroke="#00A8DA"/>
</svg>
