<svg width="16" height="17" viewBox="0 0 16 17" fill="none" xmlns="http://www.w3.org/2000/svg">
<path d="M12 6.69263H11C10.9996 6.29492 10.8414 5.91362 10.5602 5.63241C10.279 5.35119 9.8977 5.19302 9.5 5.19263V4.19263C10.1628 4.19342 10.7982 4.45707 11.2669 4.92574C11.7356 5.39441 11.9992 6.02983 12 6.69263Z" fill="white"/>
<path d="M13.5384 6.80816H12.6153C12.6144 5.95158 12.2736 5.13036 11.6679 4.52467C11.0622 3.91898 10.241 3.57827 9.38444 3.57729V2.65418C10.4858 2.65541 11.5417 3.09345 12.3204 3.87221C13.0992 4.65096 13.5372 5.70683 13.5384 6.80816ZM9.9997 10.7231L11.0336 9.68918C11.172 9.55075 11.3479 9.45598 11.5397 9.4166C11.7314 9.37722 11.9305 9.39496 12.1122 9.46763L13.3714 9.97165C13.5569 10.0459 13.716 10.1741 13.8281 10.3396C13.9401 10.5051 14 10.7004 14 10.9003V13.1901C14.0003 13.3262 13.9729 13.4609 13.9193 13.586C13.8658 13.7111 13.7872 13.824 13.6886 13.9177C13.5899 14.0114 13.4731 14.084 13.3454 14.131C13.2177 14.1781 13.0817 14.1985 12.9458 14.1912C4.11994 13.6419 2.33742 6.1666 2.00648 3.30405C1.99045 3.16411 2.00423 3.02235 2.04692 2.88812C2.0896 2.75388 2.16023 2.6302 2.25414 2.52522C2.34805 2.42023 2.46313 2.33632 2.5918 2.27899C2.72046 2.22167 2.85981 2.19224 3.00067 2.19263H5.24983C5.44972 2.19262 5.64502 2.25251 5.81054 2.36456C5.97607 2.47661 6.10423 2.63569 6.17848 2.82127L6.68204 4.08038C6.75471 4.26213 6.77245 4.46121 6.73307 4.65294C6.69369 4.84468 6.59891 5.02064 6.46049 5.15903L5.42661 6.19291C5.42661 6.19291 5.99986 10.2232 9.9997 10.7231Z" fill="white"/>
</svg>
